<svg width="64" height="64" viewBox="0 0 64 64" fill="none" xmlns="http://www.w3.org/2000/svg">
<g clip-path="url(#clip0)">
<path d="M31.6831 11.8587C28.7259 13.9386 25.3742 16.296 23.5783 20.1961C20.4591 27.0005 29.9611 34.4227 30.3672 34.7353C30.4616 34.8079 30.5746 34.8442 30.6872 34.8442C30.8069 34.8442 30.9266 34.8033 31.0239 34.7218C31.2125 34.5641 31.266 34.2961 31.1527 34.0778C31.1184 34.0116 27.7076 27.3865 27.8344 22.6338C27.8792 20.9784 30.1959 19.1005 32.6484 17.1124C34.8946 15.2914 37.4409 13.2275 38.9306 10.8131C42.2012 5.49857 38.5661 0.272796 38.529 0.220546C38.3846 0.0177948 38.1181 -0.0555805 37.8903 0.0442949C37.6626 0.144795 37.5365 0.390921 37.5885 0.634297C37.5959 0.668922 38.3028 4.12469 36.3358 7.68507C35.5255 9.15633 33.745 10.4086 31.6831 11.8587Z" fill="#DB380E"/>
<path d="M44.1423 14.2022C44.3509 14.0451 44.4122 13.7585 44.2861 13.5297C44.1597 13.301 43.8847 13.2001 43.6404 13.2928C43.1381 13.4838 31.3384 18.0322 31.3384 23.5279C31.3384 27.3163 32.9566 29.3175 34.1383 30.779C34.6018 31.3523 35.0019 31.8473 35.1338 32.2699C35.505 33.4878 34.6255 35.689 34.2556 36.4345C34.149 36.6488 34.2013 36.9085 34.3826 37.065C34.4806 37.1497 34.603 37.1927 34.7255 37.1927C34.8298 37.1927 34.9345 37.1617 35.025 37.0987C35.2279 36.9577 39.9834 33.5954 39.1305 29.5445C38.8128 28.0048 38.0562 26.8798 37.3885 25.887C36.3543 24.3489 35.6073 23.2379 36.7405 21.1859C38.0683 18.7923 44.0814 14.2477 44.1423 14.2022Z" fill="#DB380E"/>
<path d="M13.4273 37.2796C13.225 37.8853 13.3205 38.486 13.7032 39.0175C14.9823 40.7934 19.5132 41.7711 26.4617 41.7711C26.4621 41.7711 26.4623 41.7711 26.4626 41.7711C27.4041 41.7711 28.3981 41.7526 29.4162 41.7161C40.5256 41.3185 44.6461 37.8575 44.8161 37.7104C45.0014 37.55 45.0509 37.283 44.9358 37.067C44.8205 36.8511 44.5721 36.7426 44.3348 36.808C40.4221 37.8763 33.1162 38.2555 28.0487 38.2555C22.3783 38.2555 19.4905 37.847 18.7835 37.5454C19.1463 37.0473 21.3838 36.1578 24.1564 35.6124C24.4214 35.5604 24.6036 35.3156 24.5773 35.0469C24.5511 34.7781 24.3253 34.5731 24.0552 34.5731C22.4299 34.5731 14.2793 34.7036 13.4273 37.2796Z" fill="#73A1FB"/>
<path d="M50.6017 33.7148C48.3103 33.7148 46.1374 34.8634 46.0459 34.912C45.834 35.0255 45.7265 35.2685 45.7847 35.502C45.843 35.7351 46.0527 35.899 46.293 35.8992C46.3417 35.8992 51.1808 35.9389 51.6191 38.7037C52.0073 41.089 47.0404 44.9538 45.0938 46.2418C44.8835 46.3809 44.8019 46.6496 44.8995 46.8821C44.9827 47.08 45.1753 47.2038 45.383 47.2038C45.4193 47.2038 45.456 47.2 45.4925 47.1923C45.9545 47.0934 56.7933 44.7049 55.6473 38.3942C54.9482 34.5267 52.5174 33.7148 50.6017 33.7148Z" fill="#73A1FB"/>
<path d="M43.1685 45.4695C43.2063 45.2674 43.1221 45.0617 42.9539 44.9436L40.355 43.1232C40.2282 43.0345 40.0681 43.0066 39.9194 43.046C39.8922 43.0528 37.1745 43.7674 33.2287 44.2055C31.6627 44.3811 29.9087 44.4739 28.1559 44.4739C24.2112 44.4739 21.6319 44.0104 21.2563 43.6704C21.2065 43.5749 21.2223 43.5315 21.2312 43.5074C21.2994 43.3176 21.6652 43.0921 21.9009 43.0028C22.1613 42.9065 22.3017 42.6237 22.2207 42.3582C22.1399 42.0923 21.866 41.936 21.5958 42.0008C18.9888 42.63 17.714 43.5097 17.8068 44.6156C17.9715 46.5764 22.5131 47.5827 26.3524 47.8487C26.9046 47.8865 27.5017 47.9056 28.1268 47.9056C28.1272 47.9056 28.1274 47.9056 28.1278 47.9056C34.5121 47.9056 42.6966 45.9025 42.7784 45.8821C42.9783 45.8334 43.1306 45.672 43.1685 45.4695Z" fill="#73A1FB"/>
<path d="M23.5753 49.6776C23.7722 49.5495 23.8595 49.3062 23.7896 49.082C23.72 48.8579 23.5103 48.7107 23.2748 48.7138C22.9254 48.723 19.8562 48.8615 19.6413 50.8157C19.5763 51.3997 19.7436 51.9333 20.1387 52.4014C21.2407 53.7075 24.2155 54.4837 29.2313 54.7745C29.8247 54.8101 30.4275 54.828 31.0231 54.828C37.4 54.828 41.6948 52.8313 41.8746 52.7463C42.049 52.6638 42.164 52.4924 42.1743 52.2999C42.1845 52.1074 42.0884 51.9248 41.9239 51.8242L38.6395 49.8192C38.5255 49.7497 38.3891 49.7267 38.2591 49.7533C38.2384 49.7577 36.153 50.1902 33.0059 50.6174C32.4104 50.6984 31.6646 50.7396 30.7896 50.7396C27.6458 50.7396 24.1491 50.2259 23.4785 49.8895C23.4687 49.8268 23.4811 49.7471 23.5753 49.6776Z" fill="#73A1FB"/>
<path d="M28.0511 60.8564C42.6579 60.8441 50.4976 58.2464 52.0078 56.6118C52.5424 56.0335 52.6002 55.486 52.5548 55.1284C52.4426 54.2484 51.6409 53.7097 51.5501 53.6512C51.3308 53.5102 51.0366 53.547 50.8656 53.7443C50.6949 53.9415 50.6909 54.2298 50.8622 54.4269C50.9543 54.5454 51.0076 54.7438 50.7382 55.0134C50.1344 55.5773 44.045 57.2889 33.9061 57.8032C32.5172 57.8753 31.0605 57.912 29.5766 57.9123C20.4987 57.9123 13.855 56.6688 12.9829 55.9443C13.319 55.4613 15.669 54.6897 18.1682 54.2532C18.4498 54.204 18.6401 53.9387 18.5964 53.6562C18.5528 53.3738 18.2924 53.1794 18.0078 53.2163C17.9373 53.2259 17.6981 53.2402 17.4211 53.2572C13.2975 53.5089 8.53239 54.07 8.28377 56.1947C8.20827 56.842 8.40064 57.4298 8.85577 57.9413C9.9694 59.1925 13.1703 60.8562 28.0506 60.8562C28.0508 60.8564 28.0508 60.8564 28.0511 60.8564Z" fill="#73A1FB"/>
<path d="M54.8768 57.0725C54.6703 56.977 54.4263 57.0252 54.2723 57.1915C54.251 57.2146 52.0548 59.511 45.4518 60.8595C42.9239 61.366 38.1789 61.6229 31.3485 61.6229C24.5053 61.6229 17.9937 61.3536 17.9288 61.3509C17.6568 61.3376 17.4242 61.5354 17.3872 61.8031C17.3501 62.0706 17.5226 62.3229 17.7852 62.3854C17.8529 62.4014 24.6771 64.0001 34.0076 64.0001C38.4828 64.0001 42.8375 63.6368 46.9512 62.9195C54.6213 61.5749 55.1583 57.7716 55.1775 57.6104C55.2042 57.385 55.083 57.168 54.8768 57.0725Z" fill="#73A1FB"/>
</g>
<defs>
<clipPath id="clip0">
<rect width="64" height="64" fill="white"/>
</clipPath>
</defs>
</svg>
