<svg width="117" height="61" viewBox="0 0 117 61" fill="none" xmlns="http://www.w3.org/2000/svg">
<path d="M23.355 38.79C24.105 39.12 24.48 39.675 24.48 40.455C24.48 41.055 24.27 41.55 23.85 41.94C23.46 42.3 22.965 42.48 22.365 42.48C21.945 42.48 21.57 42.405 21.24 42.255L4.545 35.145C3.915 34.875 3.42 34.485 3.06 33.975C2.7 33.435 2.52 32.82 2.52 32.13C2.52 31.47 2.7 30.87 3.06 30.33C3.42 29.79 3.915 29.4 4.545 29.16L21.24 22.005C21.63 21.855 22.005 21.78 22.365 21.78C22.965 21.78 23.46 21.975 23.85 22.365C24.27 22.725 24.48 23.205 24.48 23.805C24.48 24.585 24.105 25.14 23.355 25.47L7.47 32.13L23.355 38.79ZM79.8096 46.53C79.6296 47.1 79.3446 47.52 78.9546 47.79C78.5646 48.06 78.1296 48.195 77.6496 48.195C77.0496 48.195 76.5096 47.985 76.0296 47.565C75.5796 47.175 75.3546 46.665 75.3546 46.035C75.3546 45.765 75.3996 45.495 75.4896 45.225L85.9296 12.51C86.1096 11.94 86.3946 11.52 86.7846 11.25C87.1746 10.98 87.6096 10.845 88.0896 10.845C88.6896 10.845 89.2146 11.055 89.6646 11.475C90.1446 11.865 90.3846 12.375 90.3846 13.005C90.3846 13.275 90.3396 13.545 90.2496 13.815L79.8096 46.53ZM112.411 29.16C113.041 29.4 113.536 29.79 113.896 30.33C114.256 30.87 114.436 31.47 114.436 32.13C114.436 32.82 114.256 33.435 113.896 33.975C113.536 34.485 113.041 34.875 112.411 35.145L95.7161 42.255C95.3861 42.405 95.0111 42.48 94.5911 42.48C93.9911 42.48 93.4811 42.3 93.0611 41.94C92.6711 41.55 92.4761 41.055 92.4761 40.455C92.4761 39.675 92.8511 39.12 93.6011 38.79L109.486 32.13L93.6011 25.47C92.8511 25.14 92.4761 24.585 92.4761 23.805C92.4761 23.205 92.6711 22.725 93.0611 22.365C93.4811 21.975 93.9911 21.78 94.5911 21.78C94.9511 21.78 95.3261 21.855 95.7161 22.005L112.411 29.16Z" fill="#4B9EF3"/>
<path d="M33.2824 45.27C32.4124 45.27 31.7074 45 31.1674 44.46C30.6574 43.92 30.4024 43.215 30.4024 42.345V16.02C30.4024 15.15 30.6424 14.475 31.1224 13.995C31.6324 13.515 32.3224 13.275 33.1924 13.275H48.9874C50.8174 13.275 51.7324 14.055 51.7324 15.615C51.7324 17.145 50.8174 17.91 48.9874 17.91H36.1174V26.55H48.0874C49.9174 26.55 50.8324 27.33 50.8324 28.89C50.8324 30.42 49.9174 31.185 48.0874 31.185H36.1174V42.345C36.1174 43.215 35.8624 43.92 35.3524 44.46C34.8424 45 34.1524 45.27 33.2824 45.27ZM73.9044 40.86C74.4444 41.4 74.7144 42.015 74.7144 42.705C74.7144 43.365 74.4594 43.965 73.9494 44.505C73.4394 45.015 72.8394 45.27 72.1494 45.27C71.3994 45.27 70.7544 44.955 70.2144 44.325L63.8694 37.305L57.5244 44.325C56.9544 44.925 56.3094 45.225 55.5894 45.225C54.9294 45.225 54.3444 44.97 53.8344 44.46C53.3244 43.95 53.0694 43.365 53.0694 42.705C53.0694 42.015 53.3394 41.4 53.8794 40.86L60.4494 33.705L54.2394 26.955C53.6994 26.415 53.4294 25.8 53.4294 25.11C53.4294 24.42 53.6844 23.835 54.1944 23.355C54.7044 22.845 55.2894 22.59 55.9494 22.59C56.6694 22.59 57.3144 22.89 57.8844 23.49L63.8694 30.06L69.8544 23.49C70.4244 22.89 71.0694 22.59 71.7894 22.59C72.4794 22.59 73.0644 22.845 73.5444 23.355C74.0544 23.835 74.3094 24.42 74.3094 25.11C74.3094 25.8 74.0394 26.415 73.4994 26.955L67.2894 33.705L73.9044 40.86Z" fill="#ED5058"/>
</svg>
