<svg width="103" height="64" viewBox="0 0 103 64" fill="none" xmlns="http://www.w3.org/2000/svg">
<g clip-path="url(#clip0)">
<path d="M98.9706 22.7383V47.1236C98.9706 47.2777 98.9654 47.4318 98.955 47.586C97.7416 49.7581 96.2814 51.7733 94.6135 53.5955L77.8716 63.2595C75.6576 63.7453 73.3589 64.0001 71 64.0001C68.6411 64.0001 66.3411 63.7453 64.1271 63.2595L50.3684 55.3182L47.3877 53.5967C45.7185 51.7747 44.2582 49.758 43.0449 47.586C43.0344 47.4318 43.0292 47.2777 43.0292 47.1236V22.7383C43.0292 20.2907 44.3366 18.0297 46.4539 16.8046L67.5751 4.61196C69.695 3.38683 72.3046 3.38683 74.4244 4.61196L91.3191 14.3661L95.5457 16.8046C97.6631 18.0298 98.9706 20.2907 98.9706 22.7383Z" fill="#004284"/>
<path d="M98.1046 19.4077L44.7013 50.2348C44.107 49.382 43.5545 48.4977 43.0451 47.586C43.0451 47.5847 43.0451 47.5847 43.0451 47.5847C43.0346 47.4318 43.0295 47.2777 43.0295 47.1237V22.7383C43.0295 20.2907 44.3356 18.0297 46.4541 16.8046L67.5754 4.61196C69.6939 3.38683 72.3035 3.38683 74.4234 4.61196L91.3194 14.3661L95.546 16.8046C96.6366 17.4355 97.5116 18.3432 98.1046 19.4077Z" fill="#6399D4"/>
<path d="M98.9706 22.7382V47.1235C98.9706 47.2776 98.9654 47.4317 98.955 47.5845C98.955 47.5857 98.955 47.5857 98.955 47.5857C98.4679 48.4568 97.9415 49.3032 97.3785 50.1208L71.1385 34.9737L98.1048 19.4073C98.6636 20.4107 98.9706 21.5523 98.9706 22.7382Z" fill="#00579E"/>
<path d="M79.2079 39.631C77.6074 42.5136 74.5331 44.464 71.0018 44.464C65.8209 44.464 61.621 40.2641 61.621 35.0832C61.621 29.9023 65.8209 25.7025 71.0018 25.7025C74.4648 25.7025 77.4881 27.5786 79.1141 30.3693L87.4083 25.5812C84.129 19.9275 78.0081 16.1262 71.0018 16.1262C60.5325 16.1262 52.045 24.6118 52.045 35.083C52.045 45.5522 60.5326 54.0397 71.0018 54.0397C78.0764 54.0397 84.2461 50.1643 87.502 44.4187L79.2079 39.631Z" fill="#F2F2F2"/>
<path d="M89.6128 33.7195H87.4577V31.5643H85.3679V33.7195H83.2128V35.8092H85.3679V37.9643H87.4577V35.8092H89.6128V33.7195Z" fill="#F2F2F2"/>
<path d="M97.4495 33.7195H95.2944V31.5643H93.2046V33.7195H91.0495V35.8092H93.2046V37.9643H95.2944V35.8092H97.4495V33.7195Z" fill="#F2F2F2"/>
</g>
<g clip-path="url(#clip1)">
<path d="M59.9706 22.7383V47.1236C59.9706 47.2777 59.9654 47.4318 59.955 47.586C58.7416 49.7581 57.2814 51.7733 55.6135 53.5955L38.8716 63.2595C36.6576 63.7453 34.3589 64.0001 32 64.0001C29.6411 64.0001 27.3411 63.7453 25.1271 63.2595L11.3684 55.3182L8.38774 53.5967C6.71849 51.7747 5.25824 49.758 4.04487 47.586C4.03437 47.4318 4.02924 47.2777 4.02924 47.1236V22.7383C4.02924 20.2907 5.33662 18.0297 7.45387 16.8046L28.5751 4.61196C30.695 3.38683 33.3046 3.38683 35.4244 4.61196L52.3191 14.3661L56.5457 16.8046C58.6631 18.0298 59.9706 20.2907 59.9706 22.7383Z" fill="#004284"/>
<path d="M59.1046 19.4077L5.70126 50.2348C5.10701 49.382 4.55451 48.4977 4.04513 47.586C4.04513 47.5847 4.04513 47.5847 4.04513 47.5847C4.03463 47.4318 4.02951 47.2777 4.02951 47.1237V22.7383C4.02951 20.2907 5.33563 18.0297 7.45413 16.8046L28.5754 4.61196C30.6939 3.38683 33.3035 3.38683 35.4234 4.61196L52.3194 14.3661L56.546 16.8046C57.6366 17.4355 58.5116 18.3432 59.1046 19.4077Z" fill="#6399D4"/>
<path d="M59.9706 22.7382V47.1235C59.9706 47.2776 59.9654 47.4317 59.955 47.5845C59.955 47.5857 59.955 47.5857 59.955 47.5857C59.4679 48.4568 58.9415 49.3032 58.3785 50.1208L32.1385 34.9737L59.1048 19.4073C59.6636 20.4107 59.9706 21.5523 59.9706 22.7382Z" fill="#00579E"/>
<path d="M40.2079 39.631C38.6074 42.5136 35.5331 44.464 32.0018 44.464C26.8209 44.464 22.621 40.2641 22.621 35.0832C22.621 29.9023 26.8209 25.7025 32.0018 25.7025C35.4648 25.7025 38.4881 27.5786 40.1141 30.3693L48.4083 25.5812C45.129 19.9275 39.0081 16.1262 32.0018 16.1262C21.5325 16.1262 13.045 24.6118 13.045 35.083C13.045 45.5522 21.5326 54.0397 32.0018 54.0397C39.0764 54.0397 45.2461 50.1643 48.502 44.4187L40.2079 39.631Z" fill="#F2F2F2"/>
</g>
<defs>
<clipPath id="clip0">
<rect width="64" height="64" fill="white" transform="translate(39)"/>
</clipPath>
<clipPath id="clip1">
<rect width="64" height="64" fill="white"/>
</clipPath>
</defs>
</svg>
