<svg width="64" height="64" viewBox="0 0 64 64" fill="none" xmlns="http://www.w3.org/2000/svg">
<g clip-path="url(#clip0)">
<path d="M9.33866 21.3434C7.13005 21.3434 5.3396 23.1338 5.3396 25.3424V44.0047C5.3396 46.2133 7.13005 48.0038 9.33866 48.0038C11.5473 48.0038 13.3377 46.2133 13.3377 44.0047V25.3424C13.3377 23.1338 11.5473 21.3434 9.33866 21.3434Z" fill="#4CAF50"/>
<path d="M54.6613 21.3434C52.4527 21.3434 50.6622 23.1338 50.6622 25.3424V44.0047C50.6622 46.2133 52.4527 48.0038 54.6613 48.0038C56.8699 48.0038 58.6604 46.2133 58.6604 44.0047V25.3424C58.6604 23.1338 56.87 21.3434 54.6613 21.3434Z" fill="#4CAF50"/>
<path d="M46.6632 21.3434H17.3368C16.6006 21.3434 16.0037 21.9402 16.0037 22.6764V44.0047C16.0031 47.1725 18.2321 49.9029 21.3358 50.5365V60.001C21.3358 62.2096 23.1263 64 25.3349 64C27.5435 64 29.334 62.2096 29.334 60.001V50.6698H34.6661V60.001C34.6661 62.2096 36.4566 64 38.6652 64C40.8738 64 42.6642 62.2096 42.6642 60.001V50.5365C45.768 49.9029 47.997 47.1725 47.9963 44.0047V22.6764C47.9962 21.9402 47.3994 21.3434 46.6632 21.3434Z" fill="#4CAF50"/>
<path d="M41.6911 5.53908L44.9409 2.29184C45.4704 1.78033 45.4851 0.936529 44.9737 0.406904C44.4622 -0.122597 43.6184 -0.137219 43.0887 0.374161C43.0776 0.384909 43.0667 0.395781 43.056 0.406904L39.2703 4.19277C34.6336 2.17861 29.369 2.17861 24.7323 4.19277L20.9466 0.404279C20.4171 -0.107226 19.5731 -0.0924794 19.0616 0.437022C18.5628 0.95365 18.5628 1.77258 19.0616 2.28909L22.3089 5.53895C18.3502 8.15834 15.9792 12.5974 16.0037 17.3442C16.0037 18.0804 16.6006 18.6772 17.3368 18.6772H46.6633C47.3995 18.6772 47.9963 18.0804 47.9963 17.3442C48.0207 12.5975 45.6498 8.15846 41.6911 5.53908Z" fill="#4CAF50"/>
<path d="M25.335 13.3452C26.0712 13.3452 26.668 12.7484 26.668 12.0121C26.668 11.2759 26.0712 10.6791 25.335 10.6791C24.5987 10.6791 24.0019 11.2759 24.0019 12.0121C24.0019 12.7484 24.5987 13.3452 25.335 13.3452Z" fill="#FAFAFA"/>
<path d="M38.6651 13.3452C39.4013 13.3452 39.9982 12.7484 39.9982 12.0121C39.9982 11.2759 39.4013 10.6791 38.6651 10.6791C37.9289 10.6791 37.332 11.2759 37.332 12.0121C37.332 12.7484 37.9289 13.3452 38.6651 13.3452Z" fill="#FAFAFA"/>
</g>
<defs>
<clipPath id="clip0">
<rect width="64" height="64" fill="white"/>
</clipPath>
</defs>
</svg>
