<svg width="80" height="64" viewBox="0 0 80 64" fill="none" xmlns="http://www.w3.org/2000/svg">
<rect x="15" y="7" width="50" height="50" fill="white"/>
<path fill-rule="evenodd" clip-rule="evenodd" d="M16.6163 0.135498C12.0515 0.135498 8.6739 4.13075 8.82508 8.46363C8.97017 12.6263 8.7817 18.0175 7.42441 22.4141C6.06305 26.8236 3.76068 29.6169 0 29.9755V34.0243C3.76068 34.383 6.06305 37.1762 7.42441 41.5857C8.7817 45.9823 8.97017 51.3735 8.82508 55.5362C8.6739 59.8684 12.0515 63.8643 16.6169 63.8643H63.3898C67.9546 63.8643 71.3315 59.8691 71.1803 55.5362C71.0353 51.3735 71.2237 45.9823 72.581 41.5857C73.9431 37.1762 76.2393 34.383 80 34.0243V29.9755C76.2393 29.6169 73.9431 26.8236 72.581 22.4141C71.2237 18.0182 71.0353 12.6263 71.1803 8.46363C71.3315 4.13143 67.9546 0.135498 63.3898 0.135498H16.6156H16.6163ZM54.2373 39.3647C54.2373 45.3308 49.7871 48.9491 42.402 48.9491H29.8305C29.4709 48.9491 29.126 48.8062 28.8717 48.5519C28.6174 48.2976 28.4746 47.9527 28.4746 47.5931V16.4067C28.4746 16.0471 28.6174 15.7022 28.8717 15.4479C29.126 15.1936 29.4709 15.0508 29.8305 15.0508H42.3302C48.4881 15.0508 52.5295 18.3863 52.5295 23.5077C52.5295 27.1023 49.8108 30.3206 46.3471 30.884V31.0718C51.0624 31.5891 54.2373 34.8541 54.2373 39.3647ZM41.0312 19.3491H33.8631V29.4738H39.9003C44.5675 29.4738 47.141 27.5945 47.141 24.2352C47.141 21.0874 44.9281 19.3491 41.0312 19.3491ZM33.8631 33.4914V44.6494H41.2949C46.1539 44.6494 48.7281 42.6996 48.7281 39.0352C48.7281 35.3701 46.082 33.4908 40.9824 33.4908H33.8631V33.4914Z" fill="#8B13FD"/>
</svg>
