<svg width="43" height="64" viewBox="0 0 43 64" fill="none" xmlns="http://www.w3.org/2000/svg">
<g clip-path="url(#clip0)">
<path d="M21.3333 32C21.3333 26.1085 26.1084 21.3334 32 21.3334C37.8916 21.3334 42.6667 26.1085 42.6667 32C42.6667 37.8916 37.8916 42.6667 32 42.6667C26.1084 42.6667 21.3333 37.8916 21.3333 32Z" fill="#1ABCFE"/>
<path d="M0 53.3333C0 47.4417 4.77511 42.6666 10.6667 42.6666H21.3333V53.3333C21.3333 59.2248 16.5582 64 10.6667 64C4.77511 64 0 59.2248 0 53.3333Z" fill="#0ACF83"/>
<path d="M21.3333 0V21.3333H32C37.8916 21.3333 42.6667 16.5582 42.6667 10.6667C42.6667 4.77511 37.8916 0 32 0H21.3333Z" fill="#FF7262"/>
<path d="M0 10.6667C0 16.5582 4.77511 21.3333 10.6667 21.3333H21.3333V0H10.6667C4.77511 0 0 4.77511 0 10.6667Z" fill="#F24E1E"/>
<path d="M0 32C0 37.8916 4.77511 42.6667 10.6667 42.6667H21.3333V21.3334H10.6667C4.77511 21.3334 0 26.1085 0 32Z" fill="#A259FF"/>
</g>
<defs>
<clipPath id="clip0">
<rect width="42.6667" height="64" fill="white"/>
</clipPath>
</defs>
</svg>
