<svg width="64" height="64" viewBox="0 0 64 64" fill="none" xmlns="http://www.w3.org/2000/svg">
<path d="M32.6415 53.464C32.2275 53.3705 31.825 53.241 31.421 53.1215L31.1165 53.029C30.7215 52.908 30.33 52.7805 29.9405 52.6465L29.779 52.588C29.43 52.4655 29.085 52.336 28.742 52.2035L28.451 52.089C28.075 51.9405 27.701 51.7855 27.332 51.6235L27.1085 51.5245C26.791 51.3805 26.477 51.2355 26.164 51.085L25.891 50.954C25.6455 50.8345 25.4025 50.7075 25.1605 50.5825C24.9985 50.497 24.8335 50.4165 24.673 50.3275C24.377 50.169 24.0865 50.0045 23.7975 49.8365L23.502 49.6715C23.1175 49.4455 22.7375 49.211 22.362 48.973L22.0545 48.768C21.7815 48.5925 21.5105 48.4135 21.243 48.2285L20.9815 48.045C20.7235 47.8625 20.4685 47.678 20.2145 47.4905L19.875 47.2335C19.643 47.056 19.4115 46.877 19.183 46.6925L18.8745 46.445C18.584 46.2055 18.2965 45.9655 18.0125 45.7185L17.9185 45.639C17.6115 45.3695 17.31 45.093 17.0125 44.8155L16.7575 44.57C16.537 44.36 16.32 44.1485 16.1065 43.9315L15.8515 43.677C15.58 43.399 15.3135 43.1175 15.052 42.832L15.013 42.79C14.7365 42.488 14.467 42.1795 14.2025 41.868L13.9905 41.616C13.793 41.3785 13.598 41.138 13.407 40.895L13.1935 40.629C12.964 40.331 12.7395 40.0345 12.52 39.732C6.44499 31.445 4.26199 20.016 9.11799 10.63L4.81249 16.0905C-0.702006 24.016 -0.0155056 34.3285 4.19699 42.7505C4.29699 42.9525 4.40249 43.151 4.50549 43.3495L4.70299 43.729L4.82549 43.9475L5.04499 44.3405C5.17599 44.571 5.31 44.8005 5.44749 45.03L5.67649 45.408C5.82849 45.6535 5.98399 45.896 6.14349 46.138L6.34249 46.445C6.56149 46.7725 6.78649 47.0995 7.01849 47.4205L7.03799 47.4455L7.15199 47.5995C7.35199 47.876 7.55899 48.149 7.76799 48.419L7.99949 48.714C8.18599 48.9485 8.37549 49.1815 8.56899 49.4135L8.78649 49.6735C9.0455 49.9785 9.30999 50.282 9.57949 50.5795L9.59549 50.596L9.62649 50.63C9.88949 50.9175 10.1595 51.1985 10.4325 51.4795L10.691 51.74C10.9025 51.953 11.1175 52.1625 11.3345 52.371L11.5975 52.621C11.8875 52.8945 12.1805 53.1625 12.4795 53.4245L12.4935 53.4355L12.647 53.5665C12.91 53.7945 13.178 54.021 13.4485 54.243L13.7805 54.5075C14.001 54.6845 14.224 54.8585 14.4485 55.0295L14.8055 55.301C15.053 55.4835 15.303 55.663 15.555 55.8385L15.828 56.032L15.903 56.0855C16.142 56.25 16.3865 56.4085 16.631 56.567L16.946 56.777C17.3205 57.014 17.701 57.2485 18.085 57.475L18.4 57.6525C18.6825 57.8155 18.967 57.9755 19.2555 58.132C19.4115 58.216 19.5715 58.2955 19.7285 58.376C19.932 58.4825 20.134 58.5905 20.341 58.694L20.4825 58.7625L20.733 58.8835C21.0535 59.0365 21.3765 59.187 21.703 59.332L21.908 59.424C22.282 59.5875 22.659 59.7445 23.0395 59.8945L23.315 60.003C23.667 60.1385 24.024 60.2725 24.3825 60.3985L24.5165 60.445C24.9095 60.5825 25.307 60.71 25.707 60.8345L25.9945 60.9205C26.4015 61.043 26.8035 61.1895 27.2235 61.267C53.893 66.1305 61.64 45.2405 61.64 45.2405C55.133 53.7175 43.584 55.9535 32.6415 53.464ZM23.0345 31.8485C23.632 32.705 24.2945 33.724 25.087 34.412C25.3745 34.7285 25.675 35.0375 25.982 35.341L26.218 35.5735C26.516 35.8625 26.819 36.1465 27.132 36.4225L27.169 36.4545L27.178 36.4635C27.5245 36.7675 27.882 37.059 28.2455 37.347L28.4875 37.536C28.852 37.8155 29.2235 38.0895 29.604 38.3515L29.6365 38.376C29.8045 38.492 29.976 38.6 30.1465 38.712L30.3875 38.8715C30.6595 39.046 30.9355 39.216 31.2155 39.379L31.3325 39.447C31.574 39.586 31.819 39.723 32.064 39.856L32.3245 39.9915C32.494 40.08 32.6635 40.1705 32.8365 40.2565L32.914 40.2915C33.265 40.4645 33.6195 40.6315 33.982 40.789L34.218 40.886C34.507 41.009 34.7995 41.129 35.093 41.241L35.468 41.3785C35.7345 41.4775 36.002 41.5675 36.272 41.658L36.6355 41.7745C37.019 41.8935 37.398 42.044 37.7975 42.1105C58.389 45.522 63.1425 29.6675 63.1425 29.6675C58.8575 35.839 50.5585 38.784 41.703 36.485C41.3095 36.3815 40.922 36.2695 40.5365 36.148L40.1865 36.0345C39.9125 35.946 39.6405 35.852 39.3705 35.7535L39.0025 35.6165C38.707 35.5025 38.4145 35.3855 38.1245 35.2625L37.888 35.1625C37.5245 35.0045 37.1665 34.8375 36.814 34.663C36.632 34.5745 36.4535 34.481 36.275 34.389L35.964 34.229C35.735 34.105 35.507 33.976 35.2825 33.844L35.1195 33.7515C34.8405 33.589 34.5665 33.421 34.2945 33.2475L34.0455 33.0815C33.8665 32.9655 33.687 32.847 33.511 32.728C33.1315 32.466 32.7625 32.192 32.398 31.914L32.1475 31.7165C28.2715 28.6565 25.199 24.4735 23.738 19.731C22.207 14.813 22.5375 9.29204 25.1895 4.81104L21.931 9.41104C17.9425 15.15 18.1595 22.833 21.2705 28.9025C21.792 29.9215 22.3785 30.909 23.0345 31.8485ZM44.738 24.749C44.9075 24.8115 45.077 24.8675 45.249 24.926L45.4745 24.9975C45.7165 25.0735 45.9575 25.162 46.208 25.2095C57.5775 27.4065 60.662 19.375 61.4825 18.1925C58.781 22.082 54.2415 23.0155 48.671 21.6635C48.231 21.557 47.747 21.398 47.323 21.2475C46.779 21.0535 46.243 20.8325 45.7225 20.583C44.733 20.1075 43.7905 19.531 42.9165 18.871C37.932 15.0885 34.8355 7.87404 38.088 1.99854L36.328 4.42404C33.977 7.88404 33.746 12.181 35.3775 16.002C37.098 20.058 40.6235 23.2395 44.738 24.749Z" fill="#0868AC"/>
</svg>
