<svg width="185" height="28" viewBox="0 0 185 28" fill="none" xmlns="http://www.w3.org/2000/svg">
<path d="M15.736 21.128C16.184 21.3413 16.408 21.672 16.408 22.12C16.408 22.4613 16.2907 22.7493 16.056 22.984C15.8213 23.1973 15.5227 23.304 15.16 23.304C14.9467 23.304 14.7013 23.2507 14.424 23.144L1.976 17.64C1.61333 17.4907 1.32533 17.2667 1.112 16.968C0.898667 16.648 0.792 16.2853 0.792 15.88C0.792 15.4747 0.898667 15.1227 1.112 14.824C1.32533 14.5253 1.61333 14.2907 1.976 14.12L14.424 8.616C14.7013 8.50933 14.936 8.456 15.128 8.456C15.4907 8.456 15.7893 8.57333 16.024 8.808C16.28 9.02133 16.408 9.30933 16.408 9.672C16.408 10.12 16.184 10.4507 15.736 10.664L3.704 15.88L15.736 21.128ZM159.491 26.12C159.384 26.4613 159.213 26.7067 158.979 26.856C158.744 27.0267 158.488 27.112 158.211 27.112C157.848 27.112 157.528 26.9947 157.251 26.76C156.973 26.5253 156.835 26.216 156.835 25.832C156.835 25.6827 156.867 25.512 156.931 25.32L164.419 1.864C164.525 1.52267 164.696 1.27733 164.931 1.128C165.165 0.957333 165.421 0.872 165.699 0.872C166.061 0.872 166.381 0.989333 166.659 1.224C166.936 1.45867 167.075 1.768 167.075 2.152C167.075 2.30133 167.043 2.472 166.979 2.664L159.491 26.12ZM182.912 14.12C183.274 14.2907 183.562 14.5253 183.776 14.824C183.989 15.1227 184.096 15.4747 184.096 15.88C184.096 16.2853 183.989 16.648 183.776 16.968C183.562 17.2667 183.274 17.4907 182.912 17.64L170.464 23.144C170.186 23.2507 169.941 23.304 169.728 23.304C169.365 23.304 169.066 23.1973 168.832 22.984C168.597 22.7493 168.48 22.4613 168.48 22.12C168.48 21.672 168.704 21.3413 169.152 21.128L181.184 15.88L169.152 10.664C168.704 10.4507 168.48 10.12 168.48 9.672C168.48 9.30933 168.597 9.02133 168.832 8.808C169.088 8.57333 169.397 8.456 169.76 8.456C169.952 8.456 170.186 8.50933 170.464 8.616L182.912 14.12Z" fill="#4B9EF3"/>
<path d="M22.4435 25.16C21.9528 25.16 21.5582 25.0107 21.2595 24.712C20.9608 24.392 20.8115 23.9867 20.8115 23.496V4.04C20.8115 3.54933 20.9502 3.16533 21.2275 2.888C21.5262 2.58933 21.9315 2.44 22.4435 2.44H33.8995C34.9235 2.44 35.4355 2.888 35.4355 3.784C35.4355 4.68 34.9235 5.128 33.8995 5.128H24.0755V12.2H33.2595C34.2835 12.2 34.7955 12.648 34.7955 13.544C34.7955 14.44 34.2835 14.888 33.2595 14.888H24.0755V23.496C24.0755 24.008 23.9262 24.4133 23.6275 24.712C23.3502 25.0107 22.9555 25.16 22.4435 25.16ZM50.2765 21.064C50.5752 21.064 50.8205 21.1813 51.0125 21.416C51.2045 21.6507 51.3005 21.9493 51.3005 22.312C51.3005 22.9307 50.9165 23.4533 50.1485 23.88C49.4018 24.3067 48.5805 24.6373 47.6845 24.872C46.8098 25.1067 45.9672 25.224 45.1565 25.224C42.6818 25.224 40.7298 24.5093 39.3005 23.08C37.8712 21.6293 37.1565 19.656 37.1565 17.16C37.1565 15.56 37.4658 14.1413 38.0845 12.904C38.7245 11.6667 39.6098 10.7067 40.7405 10.024C41.8925 9.34133 43.1938 9 44.6445 9C46.7352 9 48.3885 9.672 49.6045 11.016C50.8205 12.36 51.4285 14.1733 51.4285 16.456C51.4285 17.3093 51.0445 17.736 50.2765 17.736H40.3885C40.6018 21.0427 42.1912 22.696 45.1565 22.696C45.9458 22.696 46.6285 22.5893 47.2045 22.376C47.7805 22.1627 48.3885 21.8853 49.0285 21.544C49.0925 21.5013 49.2632 21.416 49.5405 21.288C49.8392 21.1387 50.0845 21.064 50.2765 21.064ZM44.7085 11.368C43.4712 11.368 42.4792 11.7627 41.7325 12.552C40.9858 13.3413 40.5378 14.4507 40.3885 15.88H48.6445C48.5805 14.4293 48.2072 13.32 47.5245 12.552C46.8632 11.7627 45.9245 11.368 44.7085 11.368ZM56.622 25.16C56.1527 25.16 55.758 25.032 55.438 24.776C55.1393 24.52 54.99 24.136 54.99 23.624V3.848C54.99 3.336 55.1393 2.952 55.438 2.696C55.758 2.41867 56.1527 2.28 56.622 2.28C57.0913 2.28 57.4753 2.41867 57.774 2.696C58.0727 2.952 58.222 3.336 58.222 3.848V23.624C58.222 24.136 58.0727 24.52 57.774 24.776C57.4753 25.032 57.0913 25.16 56.622 25.16ZM64.372 25.16C63.9027 25.16 63.508 25.032 63.188 24.776C62.8893 24.52 62.74 24.136 62.74 23.624V10.632C62.74 10.12 62.8893 9.736 63.188 9.48C63.508 9.20267 63.9027 9.064 64.372 9.064C64.8413 9.064 65.2253 9.20267 65.524 9.48C65.8227 9.736 65.972 10.12 65.972 10.632V23.624C65.972 24.136 65.8227 24.52 65.524 24.776C65.2253 25.032 64.8413 25.16 64.372 25.16ZM64.372 5.928C63.7533 5.928 63.2627 5.75733 62.9 5.416C62.5373 5.07467 62.356 4.62667 62.356 4.072C62.356 3.51733 62.5373 3.08 62.9 2.76C63.2627 2.41867 63.7533 2.248 64.372 2.248C64.9693 2.248 65.4493 2.41867 65.812 2.76C66.196 3.08 66.388 3.51733 66.388 4.072C66.388 4.62667 66.2067 5.07467 65.844 5.416C65.4813 5.75733 64.9907 5.928 64.372 5.928ZM83.642 22.568C83.962 22.888 84.122 23.2613 84.122 23.688C84.122 24.0933 83.9727 24.4453 83.674 24.744C83.3967 25.0213 83.0553 25.16 82.65 25.16C82.2447 25.16 81.8713 24.9787 81.53 24.616L76.634 19.112L71.77 24.616C71.4287 24.9787 71.0553 25.16 70.65 25.16C70.2447 25.16 69.8927 25.0107 69.594 24.712C69.3167 24.4133 69.178 24.0613 69.178 23.656C69.178 23.2507 69.3273 22.888 69.626 22.568L74.682 17L69.882 11.656C69.562 11.2933 69.402 10.9307 69.402 10.568C69.402 10.1627 69.5513 9.82133 69.85 9.544C70.1487 9.24533 70.49 9.096 70.874 9.096C71.2793 9.096 71.6527 9.27733 71.994 9.64L76.634 14.888L81.274 9.64C81.6153 9.27733 81.9993 9.096 82.426 9.096C82.81 9.096 83.1513 9.24533 83.45 9.544C83.7487 9.82133 83.898 10.1627 83.898 10.568C83.898 10.9733 83.738 11.336 83.418 11.656L78.618 17L83.642 22.568ZM87.6748 17.768C87.1841 17.768 86.8108 17.6613 86.5548 17.448C86.2988 17.2133 86.1708 16.8933 86.1708 16.488C86.1708 16.0827 86.2988 15.7627 86.5548 15.528C86.8108 15.2933 87.1841 15.176 87.6748 15.176H94.4908C94.9814 15.176 95.3548 15.2933 95.6108 15.528C95.8668 15.7627 95.9948 16.0827 95.9948 16.488C95.9948 16.8933 95.8668 17.2133 95.6108 17.448C95.3548 17.6613 94.9814 17.768 94.4908 17.768H87.6748ZM112.486 22.568C112.806 22.888 112.966 23.2613 112.966 23.688C112.966 24.0933 112.816 24.4453 112.518 24.744C112.24 25.0213 111.899 25.16 111.494 25.16C111.088 25.16 110.715 24.9787 110.374 24.616L105.478 19.112L100.614 24.616C100.272 24.9787 99.8991 25.16 99.4938 25.16C99.0884 25.16 98.7364 25.0107 98.4378 24.712C98.1604 24.4133 98.0218 24.0613 98.0218 23.656C98.0218 23.2507 98.1711 22.888 98.4698 22.568L103.526 17L98.7258 11.656C98.4058 11.2933 98.2458 10.9307 98.2458 10.568C98.2458 10.1627 98.3951 9.82133 98.6938 9.544C98.9924 9.24533 99.3338 9.096 99.7178 9.096C100.123 9.096 100.496 9.27733 100.838 9.64L105.478 14.888L110.118 9.64C110.459 9.27733 110.843 9.096 111.27 9.096C111.654 9.096 111.995 9.24533 112.294 9.544C112.592 9.82133 112.742 10.1627 112.742 10.568C112.742 10.9733 112.582 11.336 112.262 11.656L107.462 17L112.486 22.568ZM117.778 25.16C117.309 25.16 116.914 25.032 116.594 24.776C116.296 24.52 116.146 24.136 116.146 23.624V10.632C116.146 10.12 116.296 9.736 116.594 9.48C116.914 9.20267 117.309 9.064 117.778 9.064C118.248 9.064 118.632 9.20267 118.93 9.48C119.229 9.736 119.378 10.12 119.378 10.632V23.624C119.378 24.136 119.229 24.52 118.93 24.776C118.632 25.032 118.248 25.16 117.778 25.16ZM117.778 5.928C117.16 5.928 116.669 5.75733 116.306 5.416C115.944 5.07467 115.762 4.62667 115.762 4.072C115.762 3.51733 115.944 3.08 116.306 2.76C116.669 2.41867 117.16 2.248 117.778 2.248C118.376 2.248 118.856 2.41867 119.218 2.76C119.602 3.08 119.794 3.51733 119.794 4.072C119.794 4.62667 119.613 5.07467 119.25 5.416C118.888 5.75733 118.397 5.928 117.778 5.928ZM125.528 25.16C125.059 25.16 124.664 25.032 124.344 24.776C124.046 24.52 123.896 24.136 123.896 23.624V3.848C123.896 3.336 124.046 2.952 124.344 2.696C124.664 2.41867 125.059 2.28 125.528 2.28C125.998 2.28 126.382 2.41867 126.68 2.696C126.979 2.952 127.128 3.336 127.128 3.848V23.624C127.128 24.136 126.979 24.52 126.68 24.776C126.382 25.032 125.998 25.16 125.528 25.16ZM143.87 21.064C144.169 21.064 144.414 21.1813 144.606 21.416C144.798 21.6507 144.894 21.9493 144.894 22.312C144.894 22.9307 144.51 23.4533 143.742 23.88C142.996 24.3067 142.174 24.6373 141.278 24.872C140.404 25.1067 139.561 25.224 138.75 25.224C136.276 25.224 134.324 24.5093 132.894 23.08C131.465 21.6293 130.75 19.656 130.75 17.16C130.75 15.56 131.06 14.1413 131.678 12.904C132.318 11.6667 133.204 10.7067 134.334 10.024C135.486 9.34133 136.788 9 138.238 9C140.329 9 141.982 9.672 143.198 11.016C144.414 12.36 145.022 14.1733 145.022 16.456C145.022 17.3093 144.638 17.736 143.87 17.736H133.982C134.196 21.0427 135.785 22.696 138.75 22.696C139.54 22.696 140.222 22.5893 140.798 22.376C141.374 22.1627 141.982 21.8853 142.622 21.544C142.686 21.5013 142.857 21.416 143.134 21.288C143.433 21.1387 143.678 21.064 143.87 21.064ZM138.302 11.368C137.065 11.368 136.073 11.7627 135.326 12.552C134.58 13.3413 134.132 14.4507 133.982 15.88H142.238C142.174 14.4293 141.801 13.32 141.118 12.552C140.457 11.7627 139.518 11.368 138.302 11.368ZM155.881 4.904C154.815 4.98933 154.025 5.33067 153.513 5.928C153.001 6.504 152.745 7.35733 152.745 8.488V9.384H155.913C156.361 9.384 156.703 9.50133 156.937 9.736C157.193 9.94933 157.321 10.248 157.321 10.632C157.321 11.016 157.193 11.3253 156.937 11.56C156.703 11.7733 156.361 11.88 155.913 11.88H152.745V23.592C152.745 24.104 152.585 24.4987 152.265 24.776C151.967 25.032 151.583 25.16 151.113 25.16C150.644 25.16 150.26 25.032 149.961 24.776C149.663 24.4987 149.513 24.104 149.513 23.592V11.88H147.593C147.145 11.88 146.793 11.7733 146.537 11.56C146.303 11.3253 146.185 11.016 146.185 10.632C146.185 10.248 146.303 9.94933 146.537 9.736C146.793 9.50133 147.145 9.384 147.593 9.384H149.513V8.968C149.513 7.00533 150.015 5.46933 151.017 4.36C152.02 3.22933 153.439 2.6 155.273 2.472L156.105 2.408C156.788 2.36533 157.279 2.44 157.577 2.632C157.897 2.824 158.057 3.13333 158.057 3.56C158.057 4.30667 157.609 4.73333 156.713 4.84L155.881 4.904Z" fill="#ED5058"/>
</svg>
