<svg width="40" height="40" viewBox="0 0 40 40" fill="none" xmlns="http://www.w3.org/2000/svg">
<path d="M20 40C31.0457 40 40 31.0457 40 20C40 8.9543 31.0457 0 20 0C8.9543 0 0 8.9543 0 20C0 31.0457 8.9543 40 20 40Z" fill="#6AAF50"/>
<path d="M10.601 7.98501L10.6004 7.98532C8.28483 9.19345 7.31334 11.987 8.37428 14.3736C9.90139 17.8092 11.9519 20.9516 14.4265 23.7035L16.2967 25.5738L28.7243 38.0013C31.8352 36.4908 34.4948 34.1974 36.449 31.3777L31.8633 26.792C31.6865 26.5315 31.4594 26.2999 31.1851 26.1138L13.8865 8.81525C13.1604 7.74532 11.7472 7.38689 10.601 7.98501Z" fill="#4D8538"/>
<path d="M27.3119 23.4855C26.6719 23.0512 25.8312 23.0534 25.1935 23.4911L24.2754 24.1212C23.2527 24.8231 21.8927 24.785 20.9097 24.0285C19.9833 23.3154 19.0991 22.5509 18.2594 21.7407C17.4492 20.9011 16.6847 20.0169 15.9717 19.0904C15.2151 18.1075 15.1771 16.7475 15.879 15.7248L16.5091 14.8067C16.9467 14.169 16.949 13.3282 16.5147 12.6882L13.8865 8.81519C13.1605 7.74535 11.7474 7.38691 10.6011 7.98496L10.6004 7.98527C8.28483 9.1934 7.31334 11.987 8.37428 14.3736C9.90139 17.8091 11.9519 20.9515 14.4265 23.7035L16.2967 25.5737C19.0487 28.0482 22.1912 30.0988 25.6266 31.6259C28.0133 32.6868 30.8068 31.7154 32.0149 29.3998L32.0152 29.3991C32.6133 28.2529 32.2549 26.8396 31.185 26.1136L27.3119 23.4855Z" fill="white"/>
</svg>
