<svg width="64" height="64" viewBox="0 0 64 64" fill="none" xmlns="http://www.w3.org/2000/svg">
<g clip-path="url(#clip0)">
<path d="M32 62.6666C28.9307 62.6666 2 62.464 2 55.4666V38.6666H62V55.4666C62 62.464 35.0693 62.6666 32 62.6666Z" fill="#FFC107"/>
<path d="M32 46.6666C28.9307 46.6666 2 46.464 2 39.4666V22.6666H62V39.4666C62 46.464 35.0693 46.6666 32 46.6666Z" fill="#FFD54F"/>
<path d="M32 30.8001C28.9307 30.8001 2 30.5974 2 23.6001V9.20007H62V23.6001C62 30.5974 35.0693 30.8001 32 30.8001Z" fill="#FFC107"/>
<path d="M32 14C28.9307 14 2 13.832 2 8C2 2.168 28.9307 2 32 2C35.0693 2 62 2.168 62 8C62 13.832 35.0693 14 32 14Z" fill="#FFD54F"/>
<path d="M32 16C28.7253 16 0 15.776 0 8C0 0.224 28.7253 0 32 0C35.2747 0 64 0.224 64 8C64 15.776 35.2747 16 32 16ZM4.23467 8C6.18667 9.51467 15.5547 12 32 12C48.4453 12 57.8133 9.51467 59.7653 8C57.8133 6.48533 48.4453 4 32 4C15.5547 4 6.18667 6.48533 4.23467 8ZM60.072 8.30933H60.0987H60.072Z" fill="black"/>
<path d="M32 32C28.7253 32 0 31.776 0 24C0 22.896 0.896 22 2 22C3.02667 22 3.872 22.7733 3.98667 23.7707C5.21867 25.2453 14.6853 28 32 28C49.3147 28 58.7813 25.2453 60.0133 23.7707C60.128 22.7733 60.9733 22 62 22C63.104 22 64 22.896 64 24C64 31.776 35.2747 32 32 32ZM60 23.9973C60 24 60 24 60 23.9973V23.9973ZM4 23.9973C4 24 4 24 4 23.9973V23.9973Z" fill="black"/>
<path d="M32 48C28.7253 48 0 47.776 0 40C0 38.896 0.896 38 2 38C3.02667 38 3.872 38.7733 3.98667 39.7707C5.21867 41.2453 14.6853 44 32 44C49.3147 44 58.7813 41.2453 60.0133 39.7707C60.128 38.7733 60.9733 38 62 38C63.104 38 64 38.896 64 40C64 47.776 35.2747 48 32 48ZM60 39.9973C60 40 60 40 60 39.9973V39.9973ZM4 39.9973C4 40 4 40 4 39.9973V39.9973Z" fill="black"/>
<path d="M32 64C28.7253 64 0 63.776 0 56V8C0 6.896 0.896 6 2 6C3.104 6 4 6.896 4 8V55.784C5.28267 57.2667 14.7467 60 32 60C49.2533 60 58.7173 57.2667 60 55.784V8C60 6.896 60.896 6 62 6C63.104 6 64 6.896 64 8V56C64 63.776 35.2747 64 32 64Z" fill="black"/>
<path d="M13.3333 40C14.8061 40 16 38.8061 16 37.3333C16 35.8605 14.8061 34.6666 13.3333 34.6666C11.8606 34.6666 10.6667 35.8605 10.6667 37.3333C10.6667 38.8061 11.8606 40 13.3333 40Z" fill="black"/>
<path d="M13.3333 24C14.8061 24 16 22.806 16 21.3333C16 19.8605 14.8061 18.6666 13.3333 18.6666C11.8606 18.6666 10.6667 19.8605 10.6667 21.3333C10.6667 22.806 11.8606 24 13.3333 24Z" fill="black"/>
<path d="M13.3333 56C14.8061 56 16 54.8061 16 53.3333C16 51.8605 14.8061 50.6666 13.3333 50.6666C11.8606 50.6666 10.6667 51.8605 10.6667 53.3333C10.6667 54.8061 11.8606 56 13.3333 56Z" fill="black"/>
</g>
<defs>
<clipPath id="clip0">
<rect width="64" height="64" fill="white"/>
</clipPath>
</defs>
</svg>
