<svg width="64" height="64" viewBox="0 0 64 64" fill="none" xmlns="http://www.w3.org/2000/svg">
<rect width="64" height="64" fill="black"/>
<path d="M0 32V64H64V0H0V32ZM51.576 29.4507C53.2027 29.856 54.44 30.5787 55.5787 31.7573C56.168 32.3867 57.0427 33.5333 57.112 33.8107C57.1333 33.8907 54.3493 35.7573 52.664 36.8053C52.6027 36.8453 52.3573 36.5813 52.0853 36.176C51.2587 34.976 50.3973 34.4587 49.0773 34.368C47.136 34.2347 45.888 35.2507 45.8987 36.9467C45.881 37.3637 45.9749 37.778 46.1707 38.1467C46.5973 39.0293 47.392 39.56 49.8773 40.6347C54.4613 42.608 56.4213 43.9067 57.64 45.7547C59 47.816 59.3067 51.1093 58.3813 53.5573C57.368 56.2187 54.848 58.0267 51.3013 58.624C50.2053 58.8187 47.6053 58.7893 46.4267 58.576C43.856 58.1173 41.4187 56.848 39.9147 55.1813C39.3253 54.5333 38.176 52.8347 38.248 52.7147C38.4328 52.5733 38.6291 52.4476 38.8347 52.3387C39.1227 52.176 40.1973 51.5547 41.2133 50.9653L43.0533 49.8987L43.44 50.4693C43.9787 51.2907 45.1547 52.4187 45.8667 52.7947C47.9093 53.872 50.712 53.72 52.0933 52.48C52.3711 52.246 52.591 51.9509 52.7358 51.6179C52.8806 51.2848 52.9464 50.9227 52.928 50.56C52.928 49.8187 52.8347 49.4933 52.448 48.9333C51.952 48.224 50.936 47.6267 48.0507 46.3733C44.7493 44.952 43.328 44.0693 42.0267 42.6667C41.2144 41.741 40.6146 40.6488 40.2693 39.4667C40.0267 38.5627 39.9653 36.296 40.1573 35.384C40.8373 32.192 43.2453 29.9707 46.72 29.3093C47.848 29.096 50.4693 29.176 51.576 29.4507ZM36.552 32.1227L36.5733 34.744H28.24V58.4133H22.3467V34.744H14.0213V32.1733C14.0213 30.7493 14.0507 29.56 14.0907 29.5333C14.1227 29.4907 19.192 29.4693 25.336 29.48L36.5227 29.512L36.552 32.1227Z" fill="#007ACC"/>
</svg>
